<?xml version="1.0" encoding="UTF-8" standalone="no"?>
<!-- Created with Inkscape (http://www.inkscape.org/) -->

<svg
   xmlns:osb="http://www.openswatchbook.org/uri/2009/osb"
   xmlns:dc="http://purl.org/dc/elements/1.1/"
   xmlns:cc="http://creativecommons.org/ns#"
   xmlns:rdf="http://www.w3.org/1999/02/22-rdf-syntax-ns#"
   xmlns:svg="http://www.w3.org/2000/svg"
   xmlns="http://www.w3.org/2000/svg"
   xmlns:sodipodi="http://sodipodi.sourceforge.net/DTD/sodipodi-0.dtd"
   xmlns:inkscape="http://www.inkscape.org/namespaces/inkscape"
   width="512"
   height="512"
   id="svg2"
   version="1.1"
   inkscape:version="0.48.0 r9654"
   sodipodi:docname="magic_circle12.svg"
   inkscape:export-filename="magic_circle12.png"
   inkscape:export-xdpi="180"
   inkscape:export-ydpi="180">
  <title
     id="title5353">Magic circle No.12</title>
  <defs
     id="defs4">
    <linearGradient
       id="linearGradient3823"
       osb:paint="solid">
      <stop
         style="stop-color:#000000;stop-opacity:1;"
         offset="0"
         id="stop3825" />
    </linearGradient>
  </defs>
  <sodipodi:namedview
     id="base"
     pagecolor="#ffffff"
     bordercolor="#666666"
     borderopacity="1.0"
     inkscape:pageopacity="0.0"
     inkscape:pageshadow="2"
     inkscape:zoom="1.8164062"
     inkscape:cx="182.77849"
     inkscape:cy="256"
     inkscape:document-units="px"
     inkscape:current-layer="layer1"
     showgrid="false"
     inkscape:window-width="1600"
     inkscape:window-height="1144"
     inkscape:window-x="-4"
     inkscape:window-y="-4"
     inkscape:window-maximized="1" />
  <metadata
     id="metadata7">
    <rdf:RDF>
      <cc:Work
         rdf:about="">
        <dc:format>image/svg+xml</dc:format>
        <dc:type
           rdf:resource="http://purl.org/dc/dcmitype/StillImage" />
        <dc:title>Magic circle No.12</dc:title>
        <dc:date>2011-05-30</dc:date>
        <dc:creator>
          <cc:Agent>
            <dc:title>sharkpp</dc:title>
          </cc:Agent>
        </dc:creator>
        <dc:rights>
          <cc:Agent>
            <dc:title>sharkpp</dc:title>
          </cc:Agent>
        </dc:rights>
        <dc:identifier>http://www.sharkpp.net/gallery/graffiti/magic_circle12.svg</dc:identifier>
        <cc:license
           rdf:resource="http://creativecommons.org/licenses/by/3.0/" />
      </cc:Work>
      <cc:License
         rdf:about="http://creativecommons.org/licenses/by/3.0/">
        <cc:permits
           rdf:resource="http://creativecommons.org/ns#Reproduction" />
        <cc:permits
           rdf:resource="http://creativecommons.org/ns#Distribution" />
        <cc:requires
           rdf:resource="http://creativecommons.org/ns#Notice" />
        <cc:requires
           rdf:resource="http://creativecommons.org/ns#Attribution" />
        <cc:permits
           rdf:resource="http://creativecommons.org/ns#DerivativeWorks" />
      </cc:License>
    </rdf:RDF>
  </metadata>
  <g
     inkscape:label="レイヤー 1"
     inkscape:groupmode="layer"
     id="layer1"
     transform="translate(0,-540.36218)"
     style="display:inline">
    <path
       sodipodi:type="inkscape:offset"
       inkscape:radius="-0.91847569"
       inkscape:original="M 258.75 64.40625 C 253.1906 64.40625 247.68812 64.657002 242.25 65.125 L 243.875 179.21875 C 245.80021 179.27485 247.69793 179.39688 249.59375 179.5625 L 264.40625 64.5 C 262.52831 64.4451 260.64123 64.40625 258.75 64.40625 z M 272.125 64.875 L 257.53125 180.5625 C 259.41317 180.88303 261.28129 181.26129 263.125 181.6875 L 294.34375 67.75 C 287.0729 66.371531 279.66369 65.399122 272.125 64.875 z M 234.5625 65.9375 C 227.28222 66.862941 220.12388 68.21192 213.125 69.9375 L 230.15625 179.78125 C 232.04954 179.57367 233.95084 179.41064 235.875 179.3125 L 234.5625 65.9375 z M 301.90625 69.34375 L 270.8125 183.8125 C 272.63774 184.39597 274.44178 185.03294 276.21875 185.71875 L 323.625 75.78125 C 316.56891 73.217297 309.32405 71.066788 301.90625 69.34375 z M 205.625 71.96875 C 198.75193 73.967455 192.02731 76.331923 185.5 79.0625 L 216.65625 182.21875 C 218.4963 181.74917 220.36997 181.33252 222.25 180.96875 L 205.625 71.96875 z M 330.8125 78.59375 L 283.5625 188.90625 C 285.27701 189.73542 286.96792 190.6069 288.625 191.53125 L 351.34375 88.5 C 344.72876 84.798493 337.88557 81.496524 330.8125 78.59375 z M 178.40625 82.21875 C 172.08065 85.176505 165.92253 88.451272 160 92.0625 L 203.65625 186.53125 C 205.42266 185.80346 207.21473 185.12576 209.03125 184.5 L 178.40625 82.21875 z M 358 92.375 L 295.4375 195.71875 C 297.02289 196.78131 298.57567 197.88042 300.09375 199.03125 L 376.71875 105.5 C 370.75848 100.77073 364.5103 96.372413 358 92.375 z M 153.375 96.3125 C 147.72526 100.08742 142.29391 104.15728 137.09375 108.5 L 191.34375 192.65625 C 192.99434 191.68488 194.66433 190.78184 196.375 189.90625 L 153.375 96.3125 z M 382.65625 110.375 L 306.25 204.09375 C 307.66644 205.36034 309.03448 206.68534 310.375 208.03125 L 399.03125 126.3125 C 393.88933 120.68149 388.43569 115.35328 382.65625 110.375 z M 131.1875 113.625 C 126.28884 118.06804 121.63094 122.76048 117.21875 127.6875 L 180.03125 200.40625 C 181.53221 199.21306 183.05431 198.07387 184.625 196.96875 L 131.1875 113.625 z M 404.09375 132.09375 L 315.78125 213.90625 C 317.01406 215.36292 318.19632 216.84723 319.34375 218.375 L 417.6875 150.34375 C 413.51565 143.98101 408.97821 137.89436 404.09375 132.09375 z M 112.09375 133.625 C 108.02422 138.56304 104.21809 143.72482 100.65625 149.0625 L 169.90625 209.6875 C 171.22477 208.29961 172.57163 206.93384 173.96875 205.625 L 112.09375 133.625 z M 96.4375 155.6875 C 93.208051 160.98835 90.239305 166.43708 87.53125 172.0625 L 161.1875 220.25 C 162.29815 218.69633 163.45892 217.17172 164.65625 215.6875 L 96.4375 155.6875 z M 421.78125 156.875 L 323.875 224.96875 C 324.88012 226.5625 325.86722 228.18978 326.78125 229.84375 L 432.21875 176.875 C 429.13224 169.97473 425.63759 163.31017 421.78125 156.875 z M 84.25 179.25 C 81.880104 184.75001 79.756755 190.40219 77.90625 196.15625 L 154 231.96875 C 154.88416 230.27152 155.80245 228.57466 156.78125 226.9375 L 84.25 179.25 z M 435.21875 184 L 330.34375 237 C 331.1215 238.72811 331.85251 240.4704 332.53125 242.25 L 442.25 205.1875 C 440.31382 197.9416 437.96302 190.87721 435.21875 184 z M 75.65625 203.71875 C 74.114118 209.3087 72.812472 214.99733 71.78125 220.78125 L 148.53125 244.53125 C 149.16964 242.72346 149.85406 240.94486 150.59375 239.1875 L 75.65625 203.71875 z M 444.09375 212.6875 L 335.09375 249.8125 C 335.62037 251.62744 336.07718 253.45579 336.5 255.3125 L 447.65625 234.375 C 446.88638 227.01174 445.68054 219.77595 444.09375 212.6875 z M 70.5625 228.5625 C 69.806537 234.13035 69.293782 239.75842 69.03125 245.46875 L 144.875 257.75 C 145.25521 255.85747 145.69995 254.00763 146.1875 252.15625 L 70.5625 228.5625 z M 448.28125 242.09375 L 337.9375 263.15625 C 338.20397 265.01657 338.43332 266.88874 338.59375 268.78125 L 448.46875 263.65625 C 448.61752 260.57281 448.6875 257.46406 448.6875 254.34375 C 448.6875 250.22496 448.53951 246.14736 448.28125 242.09375 z M 68.8125 253.34375 C 68.8108 253.67736 68.8125 254.00973 68.8125 254.34375 C 68.8125 259.53724 69.028523 264.69304 69.4375 269.78125 L 143.15625 271.3125 C 143.26901 269.39957 143.4353 267.50687 143.65625 265.625 L 68.8125 253.34375 z M 447.90625 271.4375 L 338.9375 276.78125 C 338.93797 276.9064 338.9375 277.03099 338.9375 277.15625 C 338.9375 278.93178 338.9058 280.71646 338.8125 282.46875 L 444.90625 292.375 C 446.29906 285.52104 447.27326 278.53798 447.90625 271.4375 z M 70.25 277.625 C 70.902976 282.96695 71.787951 288.24208 72.875 293.4375 L 143.28125 285.03125 C 143.13173 283.14598 143.0413 281.2263 143 279.3125 L 70.25 277.625 z M 338.0625 290.40625 C 337.80745 292.29571 337.48615 294.1463 337.125 296 L 437.15625 319.6875 C 439.50596 313.27321 441.49999 306.68579 443.15625 299.96875 L 338.0625 290.40625 z M 144.25 292.9375 L 74.59375 301.09375 C 75.877054 306.1644 77.380554 311.16358 79.0625 316.0625 L 145.3125 298.5625 C 144.90001 296.71003 144.55597 294.82785 144.25 292.9375 z M 335.3125 303.75 C 334.79962 305.5742 334.23918 307.37682 333.625 309.15625 L 425.625 345.09375 C 428.82517 339.22148 431.7036 333.16426 434.28125 326.9375 L 335.3125 303.75 z M 147.375 306.28125 L 81.78125 323.4375 C 83.644232 328.20656 85.70915 332.86499 87.9375 337.4375 L 149.21875 311.65625 C 148.55347 309.88729 147.9392 308.09717 147.375 306.28125 z M 330.6875 316.59375 C 329.92404 318.32907 329.10943 320.03787 328.25 321.71875 L 410.875 368.125 C 414.77255 362.92224 418.39319 357.50276 421.75 351.90625 L 330.6875 316.59375 z M 152.34375 319.03125 L 91.53125 344.4375 C 93.914641 348.85201 96.442232 353.17941 99.15625 357.375 L 154.90625 324.125 C 153.99405 322.45719 153.15999 320.75613 152.34375 319.03125 z M 324.3125 328.65625 C 323.32469 330.25219 322.32515 331.84174 321.25 333.375 L 393.34375 388.375 C 397.79378 383.90639 402.00993 379.20399 406 374.3125 L 324.3125 328.65625 z M 159.03125 330.9375 L 103.53125 363.84375 C 106.38734 367.88516 109.40722 371.79381 112.5625 375.59375 L 162.28125 335.59375 C 161.15337 334.07702 160.07171 332.5199 159.03125 330.9375 z M 316.375 339.71875 C 315.16965 341.17063 313.94205 342.58938 312.65625 343.96875 L 373.625 405.625 C 378.49921 401.91818 383.1674 397.96349 387.65625 393.8125 L 316.375 339.71875 z M 167.3125 341.84375 L 117.6875 381.5625 C 120.95877 385.18772 124.39893 388.66774 127.9375 392.03125 L 171.1875 345.96875 C 169.86375 344.62641 168.55757 343.26033 167.3125 341.84375 z M 307 349.59375 C 305.6054 350.86642 304.15411 352.05863 302.6875 353.25 L 352.1875 419.75 C 357.36202 416.82012 362.39231 413.63691 367.25 410.25 L 307 349.59375 z M 177 351.4375 L 133.71875 397.3125 C 137.38676 400.52332 141.18465 403.60641 145.09375 406.53125 L 181.4375 355 C 179.92904 353.84486 178.43754 352.67653 177 351.4375 z M 296.28125 358.0625 C 294.73624 359.12126 293.16951 360.12294 291.5625 361.09375 L 329.5625 430.625 C 334.91653 428.47268 340.15032 426.113 345.25 423.5 L 296.28125 358.0625 z M 187.96875 359.625 L 151.46875 411.09375 C 155.48621 413.84897 159.61188 416.46002 163.84375 418.90625 L 192.8125 362.53125 C 191.1777 361.60703 189.54344 360.6387 187.96875 359.625 z M 284.5625 364.9375 C 282.8813 365.77446 281.17187 366.571 279.4375 367.3125 L 306.21875 438.3125 C 311.65242 436.91448 316.98467 435.26164 322.21875 433.40625 L 284.5625 364.9375 z M 199.9375 366.1875 L 170.75 422.6875 C 175.08489 424.95833 179.50738 427.06229 184.03125 429 L 205.125 368.40625 C 203.37415 367.71792 201.63745 366.97203 199.9375 366.1875 z M 271.96875 370.125 C 270.18813 370.71889 268.38695 371.25719 266.5625 371.75 L 282.53125 442.8125 C 287.94859 442.13578 293.29685 441.21684 298.5625 440.09375 L 271.96875 370.125 z M 212.6875 371 L 191.3125 431.9375 C 195.93345 433.69291 200.65212 435.2905 205.4375 436.6875 L 218.125 372.5 C 216.28774 372.06177 214.48299 371.54008 212.6875 371 z M 258.75 373.53125 C 256.91584 373.86756 255.05585 374.1736 253.1875 374.40625 L 258.90625 444.28125 C 264.21759 444.27725 269.48667 444.02559 274.6875 443.59375 L 258.75 373.53125 z M 226 374.03125 L 213.03125 438.71875 C 217.90054 439.9221 222.83453 440.96169 227.84375 441.78125 L 231.59375 374.71875 C 229.7135 374.54055 227.84778 374.31419 226 374.03125 z M 245.21875 375.0625 C 243.80661 375.1229 242.39576 375.15625 240.96875 375.15625 C 240.49889 375.15625 240.0308 375.1315 239.5625 375.125 L 235.625 442.875 C 240.70503 443.49185 245.83567 443.9174 251.03125 444.125 L 245.21875 375.0625 z "
       style="color:#000000;fill:#000000;fill-opacity:1;fill-rule:evenodd;stroke:#000000;stroke-width:3;stroke-linecap:butt;stroke-linejoin:miter;stroke-miterlimit:4;stroke-opacity:0;stroke-dasharray:none;stroke-dashoffset:0;marker:none;visibility:visible;display:inline;overflow:visible;enable-background:accumulate"
       id="path5351"
       d="m 258.75,65.3125 c -5.25789,0 -10.44257,0.265144 -15.59375,0.6875 l 1.625,112.375 c 1.34029,0.0528 2.67729,0.11319 4,0.21875 L 263.375,65.375 c -1.54111,-0.03971 -3.08041,-0.0625 -4.625,-0.0625 z m 14.15625,0.5625 -14.375,113.9375 c 1.3197,0.23721 2.63738,0.4925 3.9375,0.78125 L 293.1875,68.5 c -6.64413,-1.22364 -13.41413,-2.116046 -20.28125,-2.625 z m -39.25,1.125 c -6.60811,0.87806 -13.12479,2.113651 -19.5,3.65625 L 230.9375,178.8125 c 1.33336,-0.13617 2.67971,-0.26107 4.03125,-0.34375 L 233.65625,67 z m 68.875,3.46875 -30.625,112.75 c 1.27933,0.42148 2.55702,0.87218 3.8125,1.34375 L 322.375,76.34375 c -6.45767,-2.307854 -13.08241,-4.271549 -19.84375,-5.875 z m -97.65625,2.6875 c -6.21924,1.845137 -12.31882,3.988513 -18.25,6.4375 l 30.65625,101.5625 c 1.30811,-0.32091 2.61074,-0.63799 3.9375,-0.90625 L 204.875,73.15625 z M 331.3125,79.8125 284.75,188.5 c 1.1925,0.5885 2.36455,1.17685 3.53125,1.8125 L 350.0625,88.875 c -6.05687,-3.348893 -12.3087,-6.382376 -18.75,-9.0625 z m -153.46875,3.71875 c -5.71333,2.707729 -11.27916,5.662065 -16.65625,8.90625 l 42.9375,92.9375 c 1.25198,-0.50293 2.5045,-0.98489 3.78125,-1.4375 L 177.84375,83.53125 z m 180.4375,10.125 -61.625,101.8125 c 1.09586,0.74703 2.18472,1.52191 3.25,2.3125 l 75.5,-92.125 c -5.47488,-4.30192 -11.1897,-8.314992 -17.125,-12 z M 153,97.6875 c -5.07381,3.43228 -9.94956,7.13489 -14.65625,11.03125 l 53.3125,82.71875 c 1.15828,-0.66492 2.34747,-1.28947 3.53125,-1.90625 L 153,97.6875 z M 382.78125,111.71875 307.5,204.03125 c 0.97672,0.89423 1.93926,1.79085 2.875,2.71875 l 87.3125,-80.46875 c -4.71376,-5.11412 -9.66175,-9.99588 -14.90625,-14.5625 z M 131,115.0625 c -4.37554,4.01566 -8.54976,8.24804 -12.53125,12.65625 l 61.6875,71.4375 c 1.058,-0.82609 2.12678,-1.62313 3.21875,-2.40625 L 131,115.0625 z M 404,133.4375 317.03125,214 c 0.85129,1.0246 1.6903,2.06629 2.5,3.125 l 96.875,-67 C 412.56484,144.32512 408.44066,138.76513 404,133.4375 z m -291.84375,1.625 c -3.62518,4.45322 -7.0647,9.06464 -10.28125,13.84375 l 68,59.53125 c 0.92872,-0.96556 1.87235,-1.91233 2.84375,-2.84375 L 112.15625,135.0625 z M 96.6875,157.09375 c -2.855368,4.74667 -5.531025,9.61882 -7.96875,14.625 L 160.96875,219 c 0.78972,-1.08332 1.60592,-2.1385 2.4375,-3.1875 L 96.6875,157.09375 z m 324.78125,1.125 -96.375,67 c 0.70138,1.12658 1.4024,2.27542 2.0625,3.4375 L 431,176.46875 c -2.8454,-6.28069 -6.04006,-12.35667 -9.53125,-18.25 z m -336.75,22.4375 c -2.078344,4.90205 -3.990048,9.89702 -5.65625,15 L 153.625,230.75 c 0.6224,-1.1788 1.2656,-2.34313 1.9375,-3.5 L 84.71875,180.65625 z m 350,4.625 -103.1875,52.15625 c 0.53345,1.2112 1.01376,2.44947 1.5,3.6875 L 441.125,204.59375 c -1.79366,-6.58816 -3.93848,-13.03174 -6.40625,-19.3125 z M 76.28125,205.0625 c -1.337441,4.95914 -2.471692,9.98342 -3.40625,15.09375 l 75.09375,23.25 c 0.45968,-1.2675 0.95885,-2.50634 1.46875,-3.75 L 76.28125,205.0625 z m 367.09375,8.84375 -107.1875,36.5 c 0.35576,1.27876 0.6961,2.54948 1,3.84375 L 446.625,233.625 c -0.73011,-6.68113 -1.8413,-13.26367 -3.25,-19.71875 z m -372,15.875 c -0.639145,4.9202 -1.122019,9.87393 -1.375,14.90625 l 74.1875,12.03125 c 0.28248,-1.33091 0.60301,-2.63142 0.9375,-3.9375 l -73.75,-23 z M 447.40625,243.1875 338.9375,263.90625 c 0.17746,1.30081 0.34209,2.61635 0.46875,3.9375 l 108.1875,-5.0625 c 0.12166,-2.79291 0.1875,-5.61343 0.1875,-8.4375 0,-3.75017 -0.15685,-7.45757 -0.375,-11.15625 z m -377.6875,11.25 c 0.0025,4.86306 0.229828,9.69607 0.59375,14.46875 l 72,1.46875 c 0.0905,-1.3364 0.23181,-2.64713 0.375,-3.96875 L 69.71875,254.4375 z m 377.15625,17.96875 -107.03125,5.25 c -0.005,1.32076 -0.0389,2.65294 -0.0937,3.96875 l 104.375,9.75 c 1.23132,-6.2144 2.14489,-12.54382 2.75,-18.96875 z M 71.34375,278.5625 c 0.599717,4.67444 1.37765,9.31231 2.3125,13.875 l 68.6875,-8.21875 c -0.0933,-1.34217 -0.1792,-2.67723 -0.21875,-4.03125 l -70.78125,-1.625 z M 338.8125,291.375 c -0.19138,1.31088 -0.38328,2.6175 -0.625,3.90625 l 98.34375,23.3125 c 2.09678,-5.80667 3.90886,-11.75394 5.4375,-17.8125 L 338.8125,291.375 z M 143.5,293.9375 75.78125,301.875 c 1.149027,4.42946 2.45001,8.79467 3.90625,13.09375 l 64.5625,-17.0625 c -0.27882,-1.32098 -0.5252,-2.63443 -0.75,-3.96875 z m 192.4375,10.90625 c -0.36869,1.26996 -0.76943,2.53185 -1.1875,3.78125 l 90.4375,35.3125 c 2.8581,-5.30113 5.46097,-10.75123 7.8125,-16.34375 l -97.0625,-22.75 z m -189.15625,2.53125 -63.75,16.65625 c 1.648378,4.14671 3.445885,8.21874 5.375,12.21875 l 59.65625,-25.09375 c -0.45858,-1.2527 -0.87254,-2.50546 -1.28125,-3.78125 z m 184.375,10.375 c -0.54796,1.21524 -1.12405,2.40582 -1.71875,3.59375 l 81.15625,45.5625 c 3.48023,-4.68938 6.7382,-9.55095 9.78125,-14.5625 L 331.15625,317.75 z M 151.875,320.21875 92.84375,344.875 c 2.092631,3.83389 4.314627,7.58798 6.65625,11.25 l 54.1875,-32.34375 c -0.62706,-1.18251 -1.23641,-2.36023 -1.8125,-3.5625 z m 172.71875,9.65625 c -0.68479,1.09826 -1.3917,2.20245 -2.125,3.28125 l 70.75,54 c 3.96791,-4.01888 7.74487,-8.23115 11.34375,-12.59375 L 324.59375,329.875 z m -165.84375,2.28125 -53.875,31.9375 c 2.49523,3.48898 5.12036,6.87831 7.84375,10.1875 l 48.3125,-38.84375 c -0.78237,-1.07369 -1.54271,-2.17719 -2.28125,-3.28125 z m 157.75,8.8125 c -0.83847,0.99631 -1.71399,1.97204 -2.59375,2.9375 L 373.6875,404.375 c 4.32061,-3.318 8.48317,-6.85612 12.5,-10.53125 L 316.5,340.96875 z m -149.28125,2.125 -48.15625,38.53125 c 2.85327,3.12401 5.81539,6.16254 8.875,9.09375 l 42,-44.75 c -0.91596,-0.93892 -1.83542,-1.89464 -2.71875,-2.875 z m 139.71875,7.75 c -0.98537,0.87249 -1.95912,1.73764 -2.96875,2.5625 L 352.4375,418.5 c 4.57672,-2.6187 9.01547,-5.42462 13.34375,-8.40625 l -58.84375,-59.25 z m -129.84375,1.8125 -42.03125,44.5625 c 3.18637,2.76176 6.47711,5.42246 9.84375,7.96875 l 35.28125,-50.03125 c -1.04762,-0.8093 -2.07244,-1.64321 -3.09375,-2.5 z m 118.9375,6.65625 c -1.06782,0.71582 -2.15469,1.42 -3.25,2.09375 l 37.1875,68.03125 c 4.71202,-1.91602 9.33422,-4.0079 13.84375,-6.28125 L 296.03125,359.3125 z m -107.8125,1.53125 -35.4375,50 c 3.4895,2.36899 7.06903,4.61426 10.71875,6.75 L 191.59375,362.875 c -1.13339,-0.65117 -2.26637,-1.33464 -3.375,-2.03125 z m 95.9375,5.28125 c -1.18102,0.57576 -2.35414,1.15731 -3.5625,1.6875 l 26.15625,69.375 c 4.79009,-1.25589 9.48793,-2.72735 14.125,-4.34375 L 284.15625,366.125 z m -83.8125,1.25 L 172,422.25 c 3.7629,1.94864 7.59499,3.77117 11.5,5.46875 l 20.46875,-58.8125 c -1.22351,-0.4946 -2.42741,-0.99041 -3.625,-1.53125 z m 71.09375,3.875 c -1.25461,0.40546 -2.50677,0.76933 -3.78125,1.125 L 283.25,441.75 c 4.73887,-0.61516 9.43829,-1.41475 14.0625,-2.375 l -25.875,-68.125 z m -58.15625,0.875 -20.78125,59.25 c 4.00946,1.50211 8.08772,2.89304 12.21875,4.125 l 12.34375,-62.34375 c -1.27836,-0.32348 -2.53309,-0.66153 -3.78125,-1.03125 z m 44.75,2.4375 c -1.28587,0.22748 -2.56664,0.44701 -3.875,0.625 l 5.59375,68.15625 c 4.62778,-0.0265 9.23279,-0.23895 13.78125,-0.59375 l -15.5,-68.1875 z M 226.75,375.03125 214.125,438 c 4.23754,1.02849 8.53601,1.91917 12.875,2.65625 l 3.625,-65.125 c -1.30448,-0.13448 -2.58449,-0.31507 -3.875,-0.5 z M 244.375,376 c -1.13339,0.0394 -2.2596,0.0625 -3.40625,0.0625 -0.20075,0 -0.37113,0.005 -0.5625,0 l -3.8125,65.96875 c 4.44225,0.52034 8.90845,0.88693 13.4375,1.09375 L 244.375,376 z"
       transform="translate(0,540.36218)" />
    <path
       sodipodi:type="arc"
       style="color:#000000;fill:none;stroke:#000000;stroke-width:8.03680992;stroke-linecap:butt;stroke-linejoin:miter;stroke-miterlimit:4;stroke-opacity:1;stroke-dasharray:none;stroke-dashoffset:0;marker:none;visibility:visible;display:inline;overflow:visible;enable-background:accumulate"
       id="path3764"
       sodipodi:cx="248.84302"
       sodipodi:cy="275.26883"
       sodipodi:rx="144.24086"
       sodipodi:ry="144.24086"
       d="m 393.08388,275.26883 c 0,79.66203 -64.57884,144.24086 -144.24086,144.24086 -79.66203,0 -144.24086,-64.57883 -144.24086,-144.24086 0,-79.66203 64.57883,-144.24086 144.24086,-144.24086 79.66202,0 144.24086,64.57883 144.24086,144.24086 z"
       transform="matrix(0.6221374,0,0,0.6221374,86.142133,646.27374)" />
    <path
       sodipodi:type="arc"
       style="color:#000000;fill:none;stroke:#000000;stroke-width:4.68055534;stroke-linecap:butt;stroke-linejoin:miter;stroke-miterlimit:4;stroke-opacity:1;stroke-dasharray:none;stroke-dashoffset:0;marker:none;visibility:visible;display:inline;overflow:visible;enable-background:accumulate"
       id="path3821"
       sodipodi:cx="238.93333"
       sodipodi:cy="289.03226"
       sodipodi:rx="185.53119"
       sodipodi:ry="185.53119"
       d="m 424.46452,289.03226 c 0,102.46604 -83.06514,185.53119 -185.53119,185.53119 -102.46604,0 -185.531185,-83.06515 -185.531185,-185.53119 0,-102.46605 83.065145,-185.53119 185.531185,-185.53119 102.46605,0 185.53119,83.06514 185.53119,185.53119 z"
       transform="matrix(1.0682493,0,0,1.0682493,3.5092608,485.94744)" />
    <path
       sodipodi:type="star"
       style="color:#000000;fill:none;stroke:#000000;stroke-width:5.59491825;stroke-linecap:butt;stroke-linejoin:miter;stroke-miterlimit:4;stroke-opacity:1;stroke-dasharray:none;stroke-dashoffset:0;marker:none;visibility:visible;display:inline;overflow:visible;enable-background:accumulate"
       id="path5270"
       sodipodi:sides="20"
       sodipodi:cx="241.13548"
       sodipodi:cy="279.12259"
       sodipodi:r1="273.01892"
       sodipodi:r2="246.53232"
       sodipodi:arg1="0.52359878"
       sodipodi:arg2="0.68067841"
       inkscape:flatsided="false"
       inkscape:rounded="0.7"
       inkscape:randomized="0"
       d="m 477.5768,415.63205 c -16.99892,29.44301 -23.45418,-7.78294 -44.84972,18.63835 -21.39555,26.4213 16.35905,24.99578 -8.90628,47.74479 -25.26533,22.749 -19.90119,-14.64976 -48.41419,3.8668 -28.51301,18.51656 7.83426,28.82762 -23.22433,42.65579 -31.05859,13.82818 -14.40013,-20.08255 -47.23954,-11.28326 -32.83941,8.79929 -1.4574,29.83762 -35.26901,33.39136 -33.81161,3.55375 -7.48949,-23.54953 -41.44075,-25.32884 -33.95127,-1.77931 -10.6064,27.9269 -43.86132,20.85835 -33.25492,-7.06855 0.15427,-24.71131 -31.58546,-36.89505 -31.73973,-12.18375 -18.71717,23.2825 -48.16018,6.28357 C 75.183015,498.56498 112.40896,492.10973 85.987668,470.71418 59.566371,449.31864 60.99189,487.07324 38.242884,461.8079 15.493878,436.54257 52.892642,441.90671 34.376083,413.39371 15.859524,384.88071 5.5484612,421.22797 -8.2797127,390.16939 -22.107886,359.1108 11.802842,375.76925 3.0035496,342.92985 -5.795743,310.09044 -26.834068,341.47245 -30.387812,307.66084 c -3.553744,-33.81162 23.5495302,-7.48949 25.3288407,-41.44076 1.7793104,-33.95126 -27.9268997,-10.6064 -20.8583477,-43.86132 7.068551,-33.25492 24.7113133,0.15428 36.895055,-31.58545 C 23.161479,159.03357 -12.304766,172.05613 4.6941622,142.61313 21.69309,113.17012 28.148344,150.39607 49.543888,123.97477 70.939432,97.553477 33.184836,98.978996 58.450168,76.22999 c 25.26533,-22.749006 19.90119,14.649759 48.414192,-3.8668 28.513,-18.51656 -7.834263,-28.827622 23.22432,-42.655796 31.05859,-13.828174 14.40014,20.082554 47.23954,11.283262 32.83941,-8.799293 1.4574,-29.837618 35.26902,-33.3913617 33.81161,-3.5537435 7.48949,23.5495307 41.44075,25.3288407 33.95126,1.77931 10.6064,-27.9269 43.86132,-20.858348 33.25492,7.068552 -0.15428,24.711314 31.58545,36.895056 31.73974,12.183742 18.71718,-23.282503 48.16018,-6.283574 29.44301,16.998927 -7.78294,23.454181 18.63836,44.849725 26.42129,21.395546 24.99578,-16.359051 47.74478,8.90628 22.74901,25.265326 -14.64976,19.901186 3.8668,48.414196 18.51656,28.513 28.82762,-7.83427 42.6558,23.22432 13.82817,31.05859 -20.08256,14.40013 -11.28326,47.23954 8.79929,32.83941 29.83761,1.4574 33.39136,35.26901 3.55374,33.81161 -23.54953,7.48949 -25.32884,41.44075 -1.77931,33.95127 27.9269,10.6064 20.85834,43.86133 -7.06855,33.25492 -24.71131,-0.15428 -36.89505,31.58545 -12.18374,31.73973 23.2825,18.71717 6.28357,48.16018 z"
       transform="matrix(0.89366733,0,0,0.89366904,43.254715,545.47185)"
       inkscape:transform-center-y="-0.29057818" />
    <path
       id="path4148"
       style="fill:none;stroke:#000000;stroke-width:5.00000048;stroke-linecap:butt;stroke-linejoin:miter;stroke-miterlimit:4;stroke-opacity:1;stroke-dasharray:none;stroke-dashoffset:0;display:inline"
       d="m 209.39602,779.5085 -12.13872,15.20555 2.98901,13.08641 22.59366,-28.29196 m 28.11484,-10.17181 -19.99625,0 -8.11859,10.17181 36.23341,0 m 25.58268,15.20555 -12.13872,-15.20555 -13.44396,0 22.59368,28.29848 m 4.90768,29.04832 4.06582,-17.80718 -8.9735,-11.24114 -8.05985,35.2818 m -18.99774,22.27365 15.62369,-7.51147 3.37405,-14.76218 -32.65053,15.70763 m -29.27648,-0.94545 15.61716,7.51148 13.65932,-6.56603 -32.64399,-15.70763 m -17.0399,-24.04718 4.06583,17.80719 12.97407,6.23999 -8.06638,-35.28832 m 30.71225,-38.46377 9.99812,-12.51915 9.99813,12.51915 13.44394,0 -23.44207,-29.36782 -23.44206,29.36782 m 55.00272,10.17181 15.61716,0 -3.47844,15.20555 8.9735,11.24114 8.36658,-36.6185 -37.59739,0 m 26.24181,49.71143 9.14319,11.4498 -13.20901,6.35738 -3.37404,14.75564 33.87092,-16.29447 -23.44206,-29.36128 m -23.3964,51.89577 -3.0934,13.53632 -12.53029,-6.02485 -13.65931,6.57255 33.88396,16.30097 8.36658,-36.62501 m -55.90334,13.75149 -12.52376,6.02483 -3.0934,-13.5363 -12.96755,-6.24002 8.36658,36.61848 33.87093,-16.29444 m -45.61154,-35.08619 -13.20902,-6.35087 9.14319,-11.45632 -2.98898,-13.08641 -23.44208,29.36128 33.87092,16.29447 m -1.45535,-56.89689 -3.47192,-15.20555 15.61064,0 8.1186,-10.17181 -37.59738,0 8.36657,36.6185"
       inkscape:connector-curvature="0" />
    <path
       sodipodi:type="arc"
       style="color:#000000;fill:none;stroke:#000000;stroke-width:9.03448296;stroke-linecap:butt;stroke-linejoin:miter;stroke-miterlimit:4;stroke-opacity:1;stroke-dasharray:none;stroke-dashoffset:0;marker:none;visibility:visible;display:inline;overflow:visible;enable-background:accumulate"
       id="path3764-4"
       sodipodi:cx="248.84302"
       sodipodi:cy="275.26883"
       sodipodi:rx="144.24086"
       sodipodi:ry="144.24086"
       d="m 393.08388,275.26883 c 0,79.66203 -64.57884,144.24086 -144.24086,144.24086 -79.66203,0 -144.24086,-64.57883 -144.24086,-144.24086 0,-79.66203 64.57883,-144.24086 144.24086,-144.24086 79.66202,0 144.24086,64.57883 144.24086,144.24086 z"
       transform="matrix(0.55343511,0,0,0.55343511,103.23822,665.18534)" />
    <path
       sodipodi:type="arc"
       style="color:#000000;fill:none;stroke:#000000;stroke-width:4.4342103;stroke-linecap:butt;stroke-linejoin:miter;stroke-miterlimit:4;stroke-opacity:1;stroke-dasharray:none;stroke-dashoffset:0;marker:none;visibility:visible;display:inline;overflow:visible;enable-background:accumulate"
       id="path3821-8"
       sodipodi:cx="238.93333"
       sodipodi:cy="289.03226"
       sodipodi:rx="185.53119"
       sodipodi:ry="185.53119"
       d="m 424.46452,289.03226 c 0,102.46604 -83.06514,185.53119 -185.53119,185.53119 -102.46604,0 -185.531185,-83.06515 -185.531185,-185.53119 0,-102.46605 83.065145,-185.53119 185.531185,-185.53119 102.46605,0 185.53119,83.06514 185.53119,185.53119 z"
       transform="matrix(1.1275965,0,0,1.1275965,-10.670759,468.79419)" />
  </g>
</svg>
