<?xml version="1.0" encoding="UTF-8" standalone="no"?>
<!-- Created with Inkscape (http://www.inkscape.org/) -->

<svg
   xmlns:dc="http://purl.org/dc/elements/1.1/"
   xmlns:cc="http://creativecommons.org/ns#"
   xmlns:rdf="http://www.w3.org/1999/02/22-rdf-syntax-ns#"
   xmlns:svg="http://www.w3.org/2000/svg"
   xmlns="http://www.w3.org/2000/svg"
   xmlns:sodipodi="http://sodipodi.sourceforge.net/DTD/sodipodi-0.dtd"
   xmlns:inkscape="http://www.inkscape.org/namespaces/inkscape"
   width="512"
   height="512"
   id="svg2"
   version="1.1"
   inkscape:version="0.48.0 r9654"
   sodipodi:docname="magic_circle13.svg"
   style="display:inline"
   inkscape:export-filename="magic_circle13.png"
   inkscape:export-xdpi="180"
   inkscape:export-ydpi="180">
  <title
     id="title5837">Magic circle no.13</title>
  <defs
     id="defs4" />
  <sodipodi:namedview
     id="base"
     pagecolor="#ffffff"
     bordercolor="#666666"
     borderopacity="1.0"
     inkscape:pageopacity="0.0"
     inkscape:pageshadow="2"
     inkscape:zoom="1.8164062"
     inkscape:cx="182.77849"
     inkscape:cy="256"
     inkscape:document-units="px"
     inkscape:current-layer="layer1"
     showgrid="false"
     inkscape:window-width="1600"
     inkscape:window-height="1144"
     inkscape:window-x="-4"
     inkscape:window-y="-4"
     inkscape:window-maximized="1" />
  <metadata
     id="metadata7">
    <rdf:RDF>
      <cc:Work
         rdf:about="">
        <dc:format>image/svg+xml</dc:format>
        <dc:type
           rdf:resource="http://purl.org/dc/dcmitype/StillImage" />
        <dc:title>Magic circle no.13</dc:title>
        <dc:date>2011-05-31</dc:date>
        <dc:creator>
          <cc:Agent>
            <dc:title>sharkpp</dc:title>
          </cc:Agent>
        </dc:creator>
        <dc:rights>
          <cc:Agent>
            <dc:title>sharkpp</dc:title>
          </cc:Agent>
        </dc:rights>
        <dc:identifier>http://www.sharkpp.net/gallery/graffiti/magic_circle13.svg</dc:identifier>
        <cc:license
           rdf:resource="http://creativecommons.org/licenses/by/3.0/" />
      </cc:Work>
      <cc:License
         rdf:about="http://creativecommons.org/licenses/by/3.0/">
        <cc:permits
           rdf:resource="http://creativecommons.org/ns#Reproduction" />
        <cc:permits
           rdf:resource="http://creativecommons.org/ns#Distribution" />
        <cc:requires
           rdf:resource="http://creativecommons.org/ns#Notice" />
        <cc:requires
           rdf:resource="http://creativecommons.org/ns#Attribution" />
        <cc:permits
           rdf:resource="http://creativecommons.org/ns#DerivativeWorks" />
      </cc:License>
    </rdf:RDF>
  </metadata>
  <g
     inkscape:label="レイヤー 1"
     inkscape:groupmode="layer"
     id="layer1"
     transform="translate(0,-540.36218)"
     style="display:inline">
    <path
       style="color:#000000;fill:none;stroke:#000000;stroke-width:3;stroke-linecap:butt;stroke-linejoin:miter;stroke-miterlimit:4;stroke-opacity:1;stroke-dasharray:none;stroke-dashoffset:0;marker:none;visibility:visible;display:inline;overflow:visible;enable-background:accumulate"
       d="m 244.01164,730.32769 c -7.38798,1.33319 -14.35727,3.88379 -20.69223,7.42293 l 14.74732,5.41939 -11.13439,24.10809 -24.10809,11.13439 -5.45224,-14.78016 c -3.55058,6.3475 -6.05543,13.35232 -7.39008,20.75792 l 5.64931,-2.62759 5.38655,14.61594 -5.38655,14.61594 -5.64931,-2.62758 c 1.33622,7.39371 3.84462,14.38671 7.39008,20.72507 l 5.45224,-14.78016 24.10809,11.13439 11.13439,24.10809 -14.74732,5.41939 c 6.33496,3.53914 13.30425,6.08973 20.69223,7.42293 l -2.62758,-5.64931 14.61594,-5.38655 14.61594,5.38655 -2.62759,5.64931 c 7.38798,-1.3332 14.35727,-3.88379 20.69223,-7.42293 l -14.74732,-5.41939 11.13439,-24.10809 24.10809,-11.13439 5.45224,14.78016 c 3.54547,-6.33836 6.05386,-13.33136 7.39008,-20.72507 l -5.6493,2.62758 -5.38655,-14.61594 5.38655,-14.61594 5.6493,2.62759 c -1.33464,-7.4056 -3.8395,-14.41042 -7.39008,-20.75792 l -5.45224,14.78016 -24.10809,-11.13439 -11.13439,-24.10809 14.74732,-5.41939 c -6.33496,-3.53914 -13.30425,-6.08974 -20.69223,-7.42293 L 270.61594,735.977 256,741.36354 241.38406,735.977 l 2.62758,-5.64931 z"
       id="path3808"
       inkscape:connector-curvature="0" />
    <path
       style="color:#000000;fill:none;stroke:#000000;stroke-width:3;stroke-linecap:butt;stroke-linejoin:miter;stroke-miterlimit:4;stroke-opacity:1;stroke-dasharray:none;stroke-dashoffset:0;marker:none;visibility:visible;display:inline;overflow:visible;enable-background:accumulate"
       d="m 246.1126,753.53977 -10.41216,22.50905 -22.50902,10.41214 3.64562,9.91501 -3.64562,9.88742 22.50902,10.41215 10.41216,22.50903 9.8874,-3.64563 9.8874,3.64563 10.41215,-22.50903 22.50903,-10.41215 -3.64564,-9.88742 3.64564,-9.91501 -22.50903,-10.41214 -10.41215,-22.50905 -9.8874,3.64564 -9.8874,-3.64564 z"
       id="path3788-0-7"
       inkscape:connector-curvature="0" />
    <path
       style="color:#000000;fill:none;stroke:#000000;stroke-width:3.00000024;stroke-linecap:butt;stroke-linejoin:miter;stroke-miterlimit:4;stroke-opacity:1;stroke-dasharray:none;stroke-dashoffset:0;marker:none;visibility:visible;display:inline;overflow:visible;enable-background:accumulate"
       d="M 256,704.34744 241.38406,735.977 256,741.36354 270.61594,735.977 256,704.34744 z m -60.36876,77.41522 -31.62955,14.61594 31.62955,14.61594 5.38655,-14.61594 -5.38655,-14.61594 z m 120.73752,0 -5.38655,14.61594 5.38655,14.61594 31.62955,-14.61594 -31.62955,-14.61594 z M 256,851.36081 241.38406,856.74736 256,888.37691 270.61594,856.74736 256,851.36081 z"
       id="path3788-1"
       inkscape:connector-curvature="0" />
    <path
       style="color:#000000;fill:none;stroke:#000000;stroke-width:3;stroke-linecap:butt;stroke-linejoin:miter;stroke-miterlimit:4;stroke-opacity:1;stroke-dasharray:none;stroke-dashoffset:0;marker:none;visibility:visible;display:inline;overflow:visible;enable-background:accumulate"
       d="m 182.29625,722.67485 20.528,55.73764 24.10809,-11.13439 11.13439,-24.10809 -55.77048,-20.49516 z m 147.4075,0 -55.77049,20.49516 11.13439,24.10809 24.10809,11.13439 20.52801,-55.73764 z m -126.8795,91.63702 -20.528,55.73764 55.77048,-20.49516 -11.13439,-24.10809 -24.10809,-11.13439 z m 106.35149,0 -24.10809,11.13439 -11.13439,24.10809 55.77049,20.49516 -20.52801,-55.73764 z"
       id="path3788-0"
       inkscape:connector-curvature="0" />
    <path
       inkscape:connector-curvature="0"
       style="color:#000000;fill:none;stroke:#000000;stroke-width:3;stroke-linecap:butt;stroke-linejoin:miter;stroke-miterlimit:4;stroke-opacity:1;stroke-dasharray:none;stroke-dashoffset:0;marker:none;visibility:visible;display:inline;overflow:visible;enable-background:accumulate"
       d="m 235.50137,683.45152 c -12.63254,2.27962 -24.54918,6.6408 -35.38119,12.69228 l 25.21613,9.26648 -19.03844,41.22181 -41.22191,19.03839 -9.32266,-25.27223 c -6.07105,10.85345 -10.35405,22.83081 -12.63615,35.49343 l 9.65964,-4.49284 9.21035,24.99142 -9.21035,24.99141 -9.65964,-4.49286 c 2.28479,12.64235 6.57385,24.59946 12.63615,35.43727 l 9.32266,-25.27219 41.22191,19.03839 19.03844,41.22178 -25.21613,9.26648 c 10.83201,6.05148 22.74865,10.41268 35.38119,12.69228 L 231.00853,899.6132 256,890.40288 l 24.99147,9.21032 -4.49284,9.65962 c 12.63253,-2.2796 24.54918,-6.6408 35.38119,-12.69228 l -25.21611,-9.26648 19.03843,-41.22178 41.2219,-19.03839 9.32267,25.27219 c 6.0623,-10.83781 10.35136,-22.79492 12.63614,-35.43727 l -9.65963,4.49286 -9.21035,-24.99141 9.21035,-24.99142 9.65963,4.49284 c -2.28209,-12.66262 -6.5651,-24.63998 -12.63614,-35.49343 l -9.32267,25.27223 -41.2219,-19.03839 -19.03843,-41.22181 25.21611,-9.26648 c -10.83201,-6.05148 -22.74866,-10.41266 -35.38119,-12.69228 l 4.49284,9.65962 -24.99147,9.21032 -24.99147,-9.21032 4.49284,-9.65962 z"
       id="path3808-1" />
    <path
       sodipodi:type="star"
       style="color:#000000;fill:none;stroke:#000000;stroke-width:3.19784927;stroke-miterlimit:4;stroke-opacity:1;stroke-dasharray:none;marker:none;visibility:visible;display:inline;overflow:visible;enable-background:accumulate"
       id="path3984"
       sodipodi:sides="8"
       sodipodi:cx="248.29247"
       sodipodi:cy="247.19141"
       sodipodi:r1="27.664173"
       sodipodi:r2="13.832087"
       sodipodi:arg1="0.78539816"
       sodipodi:arg2="1.1780972"
       inkscape:flatsided="false"
       inkscape:rounded="0"
       inkscape:randomized="0"
       d="m 267.85399,266.75293 -14.26821,-6.78234 -5.29331,14.88499 -5.29331,-14.88499 -14.26822,6.78234 6.78234,-14.26821 -14.88499,-5.29331 14.88499,-5.29331 -6.78234,-14.26822 14.26821,6.78234 5.29332,-14.88499 5.2933,14.88499 14.26822,-6.78234 -6.78234,14.26822 14.88499,5.29331 -14.88499,5.29331 z"
       transform="matrix(0.93813053,0,0,0.93813053,23.069257,564.46437)" />
    <path
       sodipodi:type="star"
       style="color:#000000;fill:#000000;fill-opacity:1;stroke:none;stroke-width:19.29549026;marker:none;visibility:visible;display:inline;overflow:visible;enable-background:accumulate"
       id="path3984-1"
       sodipodi:sides="8"
       sodipodi:cx="248.29247"
       sodipodi:cy="247.19141"
       sodipodi:r1="27.664173"
       sodipodi:r2="13.832087"
       sodipodi:arg1="0.78539816"
       sodipodi:arg2="1.1780972"
       inkscape:flatsided="false"
       inkscape:rounded="0"
       inkscape:randomized="0"
       d="m 267.85399,266.75293 -14.26821,-6.78234 -5.29331,14.88499 -5.29331,-14.88499 -14.26822,6.78234 6.78234,-14.26821 -14.88499,-5.29331 14.88499,-5.29331 -6.78234,-14.26822 14.26821,6.78234 5.29332,-14.88499 5.2933,14.88499 14.26822,-6.78234 -6.78234,14.26822 14.88499,5.29331 -14.88499,5.29331 z"
       transform="matrix(0.44981231,0,0,0.44981231,144.31499,685.17244)" />
    <path
       sodipodi:type="arc"
       style="color:#000000;fill:none;stroke:#000000;stroke-width:3.01743698;stroke-opacity:1;marker:none;visibility:visible;display:inline;overflow:visible;enable-background:accumulate"
       id="path4005"
       sodipodi:cx="251.04517"
       sodipodi:cy="248.84302"
       sodipodi:rx="122.21935"
       sodipodi:ry="122.21935"
       d="m 373.26452,248.84302 c 0,67.49988 -54.71947,122.21935 -122.21935,122.21935 -67.49989,0 -122.21936,-54.71947 -122.21936,-122.21935 0,-67.49989 54.71947,-122.21936 122.21936,-122.21936 67.49988,0 122.21935,54.71947 122.21935,122.21936 z"
       transform="matrix(0.99422127,0,0,0.99422127,6.4055564,548.95716)" />
    <path
       style="font-size:medium;font-style:normal;font-variant:normal;font-weight:normal;font-stretch:normal;text-indent:0;text-align:start;text-decoration:none;line-height:normal;letter-spacing:normal;word-spacing:normal;text-transform:none;direction:ltr;block-progression:tb;writing-mode:lr-tb;text-anchor:start;baseline-shift:baseline;color:#000000;fill:#000000;fill-opacity:1;stroke:none;stroke-width:3;marker:none;visibility:visible;display:inline;overflow:visible;enable-background:accumulate;font-family:Sans;-inkscape-font-specification:Sans"
       d="m 254.38762,640.12916 0,29.02286 c 0.53621,-0.006 1.0746,-0.0336 1.61238,-0.0336 0.53778,0 1.07617,0.0269 1.61238,0.0336 l 0,-29.02286 -3.22476,0 z m -4.93792,0.13438 -3.22476,0.16795 1.51161,28.95567 c 1.07495,-0.0689 2.1427,-0.0923 3.22476,-0.13436 l -1.51161,-28.98926 z m 13.1006,0 -1.51161,28.98926 c 1.08206,0.0421 2.14981,0.0654 3.22476,0.13436 l 1.51161,-28.95567 -3.22476,-0.16795 z m -21.26328,0.57105 -3.22476,0.33591 3.02321,28.8549 c 1.07207,-0.12531 2.14473,-0.27101 3.22476,-0.3695 l -3.02321,-28.82131 z m 29.42596,0 -3.02321,28.82131 c 1.08003,0.0985 2.15269,0.24419 3.22476,0.3695 l 3.02321,-28.8549 -3.22476,-0.33591 z m -37.55505,0.97415 -3.19117,0.50386 4.53482,28.61976 c 1.06124,-0.18069 2.12116,-0.31603 3.19118,-0.47027 l -4.53483,-28.65335 z m 45.68414,0 -4.53483,28.65335 c 1.07002,0.15424 2.12994,0.28958 3.19118,0.47027 l 4.53482,-28.61976 -3.19117,-0.50386 z m -53.74604,1.41082 -3.15758,0.67183 6.01284,28.35103 c 1.04803,-0.23596 2.09993,-0.46191 3.15758,-0.67182 l -6.01284,-28.35104 z m 61.80794,0 -6.01284,28.35104 c 1.05765,0.20991 2.10955,0.43586 3.15758,0.67182 l 6.01284,-28.35103 -3.15758,-0.67183 z m -69.76907,1.81394 -3.12399,0.83977 7.49086,27.98153 c 1.03632,-0.2912 2.07712,-0.54075 3.12398,-0.80618 L 217.1349,645.0335 z m 77.7302,0 -7.49085,28.01512 c 1.04686,0.26543 2.08766,0.51498 3.12398,0.80618 l 7.49086,-27.98153 -3.12399,-0.83977 z m -85.62415,2.25061 -3.0568,1.00774 8.96886,27.54485 c 1.00898,-0.34183 2.03666,-0.65714 3.0568,-0.97416 l -8.96886,-27.57843 z m 93.5181,0 -8.96886,27.57843 c 1.02014,0.31702 2.04782,0.63233 3.0568,0.97416 l 8.96886,-27.54485 -3.0568,-1.00774 z m -101.24409,2.65371 -3.02322,1.14211 10.3797,27.07456 c 0.99948,-0.39883 2.01144,-0.80168 3.02321,-1.1757 l -10.37969,-27.04097 z m 108.97008,0 -10.37969,27.04097 c 1.01177,0.37402 2.02373,0.77687 3.02321,1.1757 l 10.3797,-27.07456 -3.02322,-1.14211 z m -116.56171,3.05681 -2.95603,1.31006 11.79053,26.46992 c 0.9746,-0.44962 1.96832,-0.88455 2.95603,-1.31006 l -11.79053,-26.46992 z m 124.15334,0 -11.79053,26.46992 c 0.98771,0.42551 1.98143,0.86044 2.95603,1.31006 l 11.79053,-26.46992 -2.95603,-1.31006 z m -131.57701,3.42631 -2.85526,1.47801 13.16778,25.83169 c 0.94589,-0.49822 1.89547,-0.96952 2.85525,-1.44442 l -13.16777,-25.86528 z m 139.00068,0 -13.16777,25.86528 c 0.95978,0.4749 1.90936,0.9462 2.85525,1.44442 l 13.16778,-25.83169 -2.85526,-1.47801 z m -146.22281,3.82941 -2.78808,1.61238 14.51144,25.12627 c 0.91799,-0.54675 1.85534,-1.08828 2.78808,-1.61239 l -14.51144,-25.12626 z m 153.44494,0 -14.51144,25.12626 c 0.93274,0.52411 1.87009,1.06564 2.78808,1.61239 l 14.51144,-25.12627 -2.78808,-1.61238 z m -160.46551,4.1989 -2.6873,1.78033 15.78789,24.2865 c 0.88904,-0.59448 1.78264,-1.17428 2.68731,-1.74675 l -15.7879,-24.32008 z m 167.48608,0 -15.7879,24.32008 c 0.90467,0.57247 1.79827,1.15227 2.68731,1.74675 l 15.78789,-24.2865 -2.6873,-1.78033 z m -174.27152,4.56841 -2.62013,1.9147 17.03079,23.48031 0.0336,0 c 0.86653,-0.64775 1.70313,-1.32232 2.58652,-1.9483 l -17.03077,-23.44671 z m 181.05696,0 -17.03077,23.44671 c 0.88339,0.62598 1.71999,1.30055 2.58652,1.9483 0.007,0.005 0.0264,-0.005 0.0336,0 l 17.03079,-23.48031 -2.62013,-1.9147 z m -187.60726,4.90432 -2.48576,2.04908 18.24007,22.53974 c 0.82503,-0.68654 1.67688,-1.34959 2.51935,-2.01548 l -18.27366,-22.57334 z m 194.15756,0 -18.27366,22.57334 c 0.84247,0.66589 1.69432,1.32894 2.51935,2.01548 l 18.24007,-22.53974 -2.48576,-2.04908 z m -200.40553,5.27384 -2.41858,2.14984 19.41576,21.5656 c 0.79374,-0.73367 1.5727,-1.46995 2.38497,-2.18343 l -19.38215,-21.53201 z m 206.6535,0 -19.38215,21.53201 c 0.81227,0.71348 1.59123,1.44976 2.38497,2.18343 l 19.41576,-21.5656 -2.41858,-2.14984 z m -212.66634,5.54255 -2.28422,2.28422 20.52428,20.52426 c 0.74893,-0.76801 1.51619,-1.53527 2.2842,-2.2842 l -20.52426,-20.52428 z m 218.67918,0 -20.52426,20.52428 c 0.76801,0.74893 1.53527,1.51619 2.2842,2.2842 l 20.52428,-20.52426 -2.28422,-2.28422 z m -224.35611,5.87848 -2.14984,2.41858 21.53201,19.38215 c 0.71348,-0.81227 1.44976,-1.59123 2.18343,-2.38497 l -21.5656,-19.41576 z m 230.03304,0 -21.5656,19.41576 c 0.73367,0.79374 1.46995,1.5727 2.18343,2.38497 l 21.53201,-19.38215 -2.14984,-2.41858 z m -235.40764,6.18079 -2.04908,2.48576 22.57334,18.27366 c 0.66589,-0.84247 1.32894,-1.69432 2.01548,-2.51935 l -22.53974,-18.24007 z m 240.78224,0 -22.53974,18.24007 c 0.68654,0.82503 1.34959,1.67688 2.01548,2.51935 l 22.57334,-18.27366 -2.04908,-2.48576 z m -245.82094,6.41593 -1.9147,2.62013 23.44671,17.03077 c 0.62598,-0.88339 1.30055,-1.71999 1.9483,-2.58652 l 0,-0.0336 -23.48031,-17.03079 z m 250.85964,0 -23.48031,17.03079 c 0.005,0.007 -0.005,0.0264 0,0.0336 0.64775,0.86653 1.32232,1.70313 1.9483,2.58652 l 23.44671,-17.03077 -1.9147,-2.62012 z m -255.56242,6.71827 -1.78033,2.6873 24.32008,15.7879 c 0.57247,-0.90467 1.15227,-1.79827 1.74675,-2.68731 l -24.2865,-15.78789 z m 260.2652,0 -24.2865,15.78789 c 0.59448,0.88904 1.17428,1.78264 1.74675,2.68731 l 24.32008,-15.7879 -1.78033,-2.6873 z m -264.63205,6.91979 -1.61238,2.78808 25.12626,14.51144 c 0.52411,-0.93274 1.06564,-1.87009 1.61239,-2.78808 l -25.12627,-14.51144 z m 268.9989,0 -25.12627,14.51144 c 0.54675,0.91799 1.08828,1.85534 1.61239,2.78808 l 25.12626,-14.51144 -1.61238,-2.78808 z m -272.96268,7.15495 -1.47801,2.85526 25.86528,13.16777 c 0.4749,-0.95978 0.9462,-1.90936 1.44442,-2.85525 l -25.83169,-13.16778 z m 276.92646,0 -25.83169,13.16778 c 0.49822,0.94589 0.96952,1.89547 1.44442,2.85525 l 25.86528,-13.16777 -1.47801,-2.85526 z m -280.52072,7.3229 -1.31006,2.95603 26.46992,11.79053 c 0.42551,-0.98771 0.86044,-1.98143 1.31006,-2.95603 l -26.46992,-11.79053 z m 284.11498,0 -26.46992,11.79053 c 0.44962,0.9746 0.88455,1.96832 1.31006,2.95603 l 26.46992,-11.79053 -1.31006,-2.95603 z m -287.33974,7.52444 -1.14211,3.02322 27.04097,10.37969 c 0.37402,-1.01177 0.77687,-2.02373 1.1757,-3.02321 l -27.07456,-10.3797 z m 290.5645,0 -27.07456,10.3797 c 0.39883,0.99948 0.80168,2.01144 1.1757,3.02321 l 27.04097,-10.37969 -1.14211,-3.02322 z m -293.35258,7.69241 -1.00774,3.0568 27.57843,8.96886 c 0.31702,-1.02014 0.63233,-2.04782 0.97416,-3.0568 l -27.54485,-8.96886 z m 296.14066,0 -27.54485,8.96886 c 0.34183,1.00898 0.65714,2.03666 0.97416,3.0568 l 27.57843,-8.96886 -1.00774,-3.0568 z m -298.55924,7.82676 -0.83977,3.12399 28.01512,7.49085 c 0.26543,-1.04686 0.51498,-2.08766 0.80618,-3.12398 l -27.98153,-7.49086 z m 300.97782,0 -27.98153,7.49086 c 0.2912,1.03632 0.54075,2.07712 0.80618,3.12398 l 28.01512,-7.49085 -0.83977,-3.12399 z m -302.9597,7.92754 -0.67183,3.15758 28.35104,6.01284 c 0.20991,-1.05765 0.43586,-2.10955 0.67182,-3.15758 l -28.35103,-6.01284 z m 304.94158,0 -28.35103,6.01284 c 0.23595,1.04803 0.46191,2.09993 0.67182,3.15758 l 28.35104,-6.01284 -0.67183,-3.15758 z m -306.52037,8.02831 -0.50386,3.19117 28.65335,4.53482 c 0.15424,-1.07001 0.28958,-2.12993 0.47027,-3.19117 l -28.61976,-4.53482 z m 308.09916,0 -28.61976,4.53482 c 0.18069,1.06124 0.31603,2.12116 0.47027,3.19117 l 28.65335,-4.53482 -0.50386,-3.19117 z m -309.24126,8.0955 -0.33591,3.22476 28.82131,3.02321 c 0.0985,-1.08003 0.24419,-2.15269 0.3695,-3.22476 l -28.8549,-3.02321 z m 310.38336,0 -28.8549,3.02321 c 0.12531,1.07207 0.27101,2.14473 0.3695,3.22476 l 28.82131,-3.02321 -0.33591,-3.22476 z m -311.12237,8.16268 -0.167952,3.22476 28.989262,1.51161 c 0.0421,-1.08206 0.0654,-2.14981 0.13436,-3.22476 l -28.95567,-1.51161 z m 311.86138,0 -28.95567,1.51161 c 0.069,1.07495 0.0923,2.1427 0.13436,3.22476 l 28.98926,-1.51161 -0.16795,-3.22476 z m -312.163706,8.16268 0,3.22476 29.022866,0 c -0.006,-0.53621 -0.0336,-1.0746 -0.0336,-1.61238 0,-0.53778 0.0269,-1.07617 0.0336,-1.61238 l -29.022866,0 z m 283.443166,0 c 0.006,0.53621 0.0336,1.0746 0.0336,1.61238 0,0.53778 -0.0269,1.07617 -0.0336,1.61238 l 29.02287,0 0,-3.22476 -29.02287,0 z m -254.31953,6.65107 -28.989262,1.51161 0.167952,3.22476 28.95567,-1.51161 c -0.069,-1.07495 -0.0923,-2.1427 -0.13436,-3.22476 z m 254.21876,0 c -0.0421,1.08206 -0.0654,2.14981 -0.13436,3.22476 l 28.95567,1.51161 0.16795,-3.22476 -28.98926,-1.51161 z m -253.81566,6.65108 -28.82131,3.02321 0.33591,3.22476 28.8549,-3.02321 c -0.12531,-1.07207 -0.27101,-2.14473 -0.3695,-3.22476 z m 253.41256,0 c -0.0985,1.08003 -0.24419,2.15269 -0.3695,3.22476 l 28.8549,3.02321 0.33591,-3.22476 -28.82131,-3.02321 z m -252.60637,6.61747 -28.65335,4.53483 0.50386,3.19117 28.61976,-4.53482 c -0.18069,-1.06124 -0.31603,-2.12116 -0.47027,-3.19118 z m 251.80018,0 c -0.15424,1.07002 -0.28958,2.12994 -0.47027,3.19118 l 28.61976,4.53482 0.50386,-3.19117 -28.65335,-4.53483 z m -250.69167,6.58389 -28.35104,6.01284 0.67183,3.15758 28.35103,-6.01284 c -0.23596,-1.04803 -0.46191,-2.09993 -0.67182,-3.15758 z m 249.58316,0 c -0.20991,1.05765 -0.43587,2.10955 -0.67182,3.15758 l 28.35103,6.01284 0.67183,-3.15758 -28.35104,-6.01284 z m -248.10514,6.48311 -28.01512,7.49086 0.83977,3.12399 27.98153,-7.49086 c -0.2912,-1.03632 -0.54075,-2.07712 -0.80618,-3.12399 z m 246.62712,0 c -0.26543,1.04687 -0.51498,2.08767 -0.80618,3.12399 l 27.98153,7.49086 0.83977,-3.12399 -28.01512,-7.49086 z m -244.8132,6.41595 -27.57843,8.96886 1.00774,3.0568 27.54485,-8.96886 c -0.34183,-1.00898 -0.65714,-2.03666 -0.97416,-3.0568 z m 242.99928,0 c -0.31702,1.02014 -0.63233,2.04782 -0.97416,3.0568 l 27.54485,8.96886 1.00774,-3.0568 -27.57843,-8.96886 z m -240.88303,6.31516 -27.04097,10.37969 1.14211,3.02322 27.07456,-10.3797 c -0.39883,-0.99948 -0.80168,-2.01144 -1.1757,-3.02321 z m 238.76678,0 c -0.37402,1.01177 -0.77687,2.02373 -1.1757,3.02321 l 27.07456,10.3797 1.14211,-3.02322 -27.04097,-10.37969 z m -236.28102,6.18079 -26.46992,11.79053 1.31006,2.95603 26.46992,-11.79053 c -0.44962,-0.9746 -0.88455,-1.96832 -1.31006,-2.95603 z m 233.79526,0 c -0.42551,0.98771 -0.86044,1.98143 -1.31006,2.95603 l 26.46992,11.79053 1.31006,-2.95603 -26.46992,-11.79053 z m -230.97359,6.04643 -25.86528,13.16777 1.47801,2.85526 25.83169,-13.16778 c -0.49822,-0.94589 -0.96952,-1.89547 -1.44442,-2.85525 z m 228.15192,0 c -0.4749,0.95978 -0.9462,1.90936 -1.44442,2.85525 l 25.83169,13.16778 1.47801,-2.85526 -25.86528,-13.16777 z m -225.06153,5.87846 -25.12626,14.51144 1.61238,2.78808 25.12627,-14.51144 c -0.54675,-0.91799 -1.08828,-1.85534 -1.61239,-2.78808 z m 221.97114,0 c -0.52411,0.93274 -1.06564,1.87009 -1.61239,2.78808 l 25.12627,14.51144 1.61238,-2.78808 -25.12626,-14.51144 z m -218.57842,5.74411 -24.32008,15.7879 1.78033,2.6873 24.2865,-15.78789 c -0.59448,-0.88904 -1.17428,-1.78264 -1.74675,-2.68731 z m 215.1857,0 c -0.57247,0.90467 -1.15227,1.79827 -1.74675,2.68731 l 24.2865,15.78789 1.78033,-2.6873 -24.32008,-15.7879 z m -211.49066,5.54257 -23.44671,17.03077 1.9147,2.62013 23.48031,-17.03079 c -0.005,-0.007 0.005,-0.0264 0,-0.0336 -0.64775,-0.86653 -1.32232,-1.70313 -1.9483,-2.58652 z m 207.79562,0 c -0.62598,0.88339 -1.30055,1.71999 -1.9483,2.58652 -0.005,0.007 0.005,0.0264 0,0.0336 l 23.48031,17.03079 1.9147,-2.62013 -23.44671,-17.03077 z m -203.76467,5.30741 -22.57334,18.27366 2.04908,2.48576 22.53974,-18.24007 c -0.68654,-0.82503 -1.34959,-1.67688 -2.01548,-2.51935 z m 199.73372,0 c -0.66589,0.84247 -1.32894,1.69432 -2.01548,2.51935 l 22.53974,18.24007 2.04908,-2.48576 -22.57334,-18.27366 z m -195.50121,5.13948 -21.53201,19.38215 2.14984,2.41858 21.5656,-19.41576 c -0.73367,-0.79374 -1.46995,-1.5727 -2.18343,-2.38497 z m 191.2687,0 c -0.71348,0.81227 -1.44976,1.59123 -2.18343,2.38497 l 21.5656,19.41576 2.14984,-2.41858 -21.53201,-19.38215 z m -186.73388,4.87073 -20.52428,20.52426 2.28422,2.28422 20.52426,-20.52428 c -0.76801,-0.74893 -1.53527,-1.51619 -2.2842,-2.2842 z m 182.19906,0 c -0.74893,0.76801 -1.51619,1.53527 -2.2842,2.2842 l 20.52426,20.52428 2.28422,-2.28422 -20.52428,-20.52426 z m -177.4291,4.63559 -19.41576,21.5656 2.41858,2.14984 19.38215,-21.53201 c -0.81227,-0.71348 -1.59123,-1.44976 -2.38497,-2.18343 z m 172.65914,0 c -0.79374,0.73367 -1.5727,1.46995 -2.38497,2.18343 l 19.38215,21.53201 2.41858,-2.14984 -19.41576,-21.5656 z m -167.65404,4.40046 -18.24007,22.53974 2.48576,2.04908 18.27366,-22.57334 c -0.84247,-0.66589 -1.69432,-1.32894 -2.51935,-2.01548 z m 162.64894,0 c -0.82503,0.68654 -1.67688,1.34959 -2.51935,2.01548 l 18.27366,22.57334 2.48576,-2.04908 -18.24007,-22.53974 z m -157.44229,4.09813 -17.03079,23.48031 2.62013,1.9147 17.03077,-23.44671 c -0.88339,-0.62598 -1.71999,-1.30055 -2.58652,-1.9483 l -0.0336,0 z m 152.20205,0 c -0.86653,0.64775 -1.70313,1.32232 -2.58652,1.9483 l 17.03077,23.44671 2.62013,-1.9147 -17.03079,-23.48031 -0.0336,0 z m -146.72668,3.89659 -15.78789,24.2865 2.6873,1.78033 15.7879,-24.32008 c -0.90467,-0.57247 -1.79827,-1.15227 -2.68731,-1.74675 z m 141.2849,0 c -0.88904,0.59448 -1.78264,1.17428 -2.68731,1.74675 l 15.7879,24.32008 2.6873,-1.78033 -15.78789,-24.2865 z m -135.64156,3.52708 -14.51144,25.12627 2.78808,1.61238 14.51144,-25.12626 c -0.93274,-0.52411 -1.87009,-1.06564 -2.78808,-1.61239 z m 129.99822,0 c -0.91799,0.54675 -1.85534,1.08828 -2.78808,1.61239 l 14.51144,25.12626 2.78808,-1.61238 -14.51144,-25.12627 z m -124.18693,3.25836 -13.16778,25.83169 2.85526,1.47801 13.16777,-25.86528 c -0.95978,-0.4749 -1.90936,-0.9462 -2.85525,-1.44442 z m 118.37564,0 c -0.94589,0.49822 -1.89547,0.96952 -2.85525,1.44442 l 13.16777,25.86528 2.85526,-1.47801 -13.16778,-25.83169 z m -112.42999,2.95603 -11.79053,26.46992 2.95603,1.31006 11.79053,-26.46992 c -0.98771,-0.42551 -1.98143,-0.86044 -2.95603,-1.31006 z m 106.48434,0 c -0.9746,0.44962 -1.96832,0.88455 -2.95603,1.31006 l 11.79053,26.46992 2.95603,-1.31006 -11.79053,-26.46992 z m -100.37073,2.62012 -10.3797,27.07456 3.02322,1.14211 10.37969,-27.04097 c -1.01177,-0.37402 -2.02373,-0.77687 -3.02321,-1.1757 z m 94.25712,0 c -0.99948,0.39883 -2.01144,0.80168 -3.02321,1.1757 l 10.37969,27.04097 3.02322,-1.14211 -10.3797,-27.07456 z m -87.97555,2.31779 -8.96886,27.54485 3.0568,1.00774 8.96886,-27.57843 c -1.02014,-0.31702 -2.04782,-0.63233 -3.0568,-0.97416 z m 81.69398,0 c -1.00898,0.34183 -2.03666,0.65714 -3.0568,0.97416 l 8.96886,27.57843 3.0568,-1.00774 -8.96886,-27.54485 z m -75.34522,1.9819 -7.49086,27.98153 3.12399,0.83977 7.49085,-28.01512 c -1.04686,-0.26543 -2.08766,-0.51498 -3.12398,-0.80618 z m 68.99646,0 c -1.03632,0.2912 -2.07712,0.54075 -3.12398,0.80618 l 7.49085,28.01512 3.12399,-0.83977 -7.49086,-27.98153 z m -62.54694,1.61238 -6.01284,28.35103 3.15758,0.67183 6.01284,-28.35104 c -1.05765,-0.20991 -2.10955,-0.43587 -3.15758,-0.67182 z m 56.09742,0 c -1.04803,0.23595 -2.09993,0.46191 -3.15758,0.67182 l 6.01284,28.35104 3.15758,-0.67183 -6.01284,-28.35103 z m -49.54713,1.31006 -4.53482,28.61976 3.19117,0.50386 4.53483,-28.65335 c -1.07002,-0.15424 -2.12994,-0.28958 -3.19118,-0.47027 z m 42.99684,0 c -1.06124,0.18069 -2.12116,0.31603 -3.19118,0.47027 l 4.53483,28.65335 3.19117,-0.50386 -4.53482,-28.61976 z m -36.41295,0.90696 -3.02321,28.8549 3.22476,0.33591 3.02321,-28.82131 c -1.08003,-0.0985 -2.15269,-0.24419 -3.22476,-0.3695 z m 29.82906,0 c -1.07207,0.12531 -2.14473,0.27101 -3.22476,0.3695 l 3.02321,28.82131 3.22476,-0.33591 -3.02321,-28.8549 z m -23.17798,0.63824 -1.51161,28.95567 3.22476,0.16795 1.51161,-28.98926 c -1.08206,-0.0421 -2.14981,-0.0654 -3.22476,-0.13436 z m 16.5269,0 c -1.07495,0.0689 -2.1427,0.0923 -3.22476,0.13436 l 1.51161,28.98926 3.22476,-0.16795 -1.51161,-28.95567 z m -9.87583,0.23513 0,29.02287 3.22476,0 0,-29.02287 c -0.53621,0.006 -1.0746,0.0336 -1.61238,0.0336 -0.53778,0 -1.07617,-0.0269 -1.61238,-0.0336 z"
       id="path4042-0-6-30"
       inkscape:connector-curvature="0" />
    <path
       sodipodi:type="arc"
       style="color:#000000;fill:none;stroke:#000000;stroke-width:1.7329874;stroke-linecap:butt;stroke-linejoin:miter;stroke-miterlimit:4;stroke-opacity:1;stroke-dasharray:none;stroke-dashoffset:0;marker:none;visibility:visible;display:inline;overflow:visible;enable-background:accumulate"
       id="path5342"
       sodipodi:cx="256"
       sodipodi:cy="258.20215"
       sodipodi:rx="93.5914"
       sodipodi:ry="93.5914"
       d="m 349.5914,258.20215 c 0,51.6891 -41.9023,93.5914 -93.5914,93.5914 -51.6891,0 -93.5914,-41.9023 -93.5914,-93.5914 0,-51.6891 41.9023,-93.5914 93.5914,-93.5914 51.6891,0 93.5914,41.9023 93.5914,93.5914 z"
       transform="matrix(1.7311146,0,0,1.7311146,-187.16535,349.38466)" />
    <path
       style="color:#000000;fill:none;stroke:#000000;stroke-width:2.99999905;stroke-linecap:butt;stroke-linejoin:miter;stroke-miterlimit:4;stroke-opacity:1;stroke-dasharray:none;stroke-dashoffset:0;marker:none;visibility:visible;display:inline;overflow:visible;enable-background:accumulate"
       d="m 227.4248,598.47976 c -15.89184,2.27456 -31.17046,6.41129 -45.62651,12.19388 l 29.44618,18.5923 16.18033,-30.78618 z m 57.1504,0 16.18032,30.78618 29.44619,-18.5923 c -14.45606,-5.78259 -29.73466,-9.91932 -45.62651,-12.19388 z m -152.28939,40.80258 c -12.39566,9.77481 -23.59083,20.96999 -33.365646,33.36565 l 34.772636,1.40699 -1.40699,-34.77264 z m 247.42838,0 -1.40699,34.77264 34.77264,-1.40699 c -9.77482,-12.39566 -20.97,-23.59084 -33.36565,-33.36565 z M 70.311464,722.16046 c -5.782593,14.45606 -9.919324,29.73468 -12.193871,45.62652 L 88.903768,751.60665 70.311464,722.16046 z m 371.377066,0 -18.59229,29.44619 30.78617,16.18033 c -2.27456,-15.89184 -6.41128,-31.17046 -12.19388,-45.62652 z M 58.117593,824.93738 c 2.274547,15.89184 6.411278,31.17045 12.193871,45.6265 L 88.903768,841.1177 58.117593,824.93738 z m 395.764817,0 -30.78617,16.18032 18.59229,29.44618 c 5.7826,-14.45605 9.91932,-29.73466 12.19388,-45.6265 z m -320.18961,93.732 -34.772636,1.40699 c 9.774816,12.39565 20.969986,23.59082 33.365646,33.36565 l 1.40699,-34.77264 z m 244.6144,0 1.40699,34.77264 c 12.39565,-9.77483 23.59083,-20.97 33.36565,-33.36565 l -34.77264,-1.40699 z m -167.06273,44.78903 -29.44618,18.5923 c 14.45605,5.7826 29.73467,9.91932 45.62651,12.19387 l -16.18033,-30.78617 z m 89.51105,0 -16.18032,30.78617 c 15.89185,-2.27455 31.17045,-6.41127 45.62651,-12.19387 l -29.44619,-18.5923 z"
       id="path5342-3-3"
       inkscape:connector-curvature="0" />
    <path
       sodipodi:type="star"
       style="color:#000000;fill:none;stroke:#000000;stroke-width:2.31433225;stroke-linecap:butt;stroke-linejoin:miter;stroke-miterlimit:4;stroke-opacity:1;stroke-dasharray:none;stroke-dashoffset:0;marker:none;visibility:visible;display:inline;overflow:visible;enable-background:accumulate"
       id="path5364-0"
       sodipodi:sides="12"
       sodipodi:cx="254.34839"
       sodipodi:cy="256"
       sodipodi:r1="183.68288"
       sodipodi:r2="125.9413"
       sodipodi:arg1="0.52359878"
       sodipodi:arg2="0.78539817"
       inkscape:flatsided="false"
       inkscape:rounded="0"
       inkscape:randomized="0"
       d="m 413.42243,347.84144 -70.0201,-2.78749 2.7875,70.02009 -59.24544,-37.42409 -32.596,62.03293 -32.59601,-62.03293 -59.24543,37.42409 2.78749,-70.02009 -70.020089,2.78749 L 132.69843,288.59601 70.665512,256 132.69844,223.40399 95.274352,164.15856 l 70.020088,2.78749 -2.78749,-70.020088 59.24543,37.424088 32.59601,-62.032927 32.59601,62.032927 59.24543,-37.424087 -2.78749,70.020087 70.02009,-2.78749 -37.42409,59.24543 L 438.03127,256 375.99834,288.59601 z"
       transform="matrix(1.2962702,0,0,1.2962702,-73.704231,464.51702)" />
    <path
       style="color:#000000;fill:none;stroke:#000000;stroke-width:3;stroke-linecap:butt;stroke-linejoin:miter;stroke-miterlimit:4;stroke-opacity:1;stroke-dasharray:none;stroke-dashoffset:0;marker:none;visibility:visible;display:inline;overflow:visible;enable-background:accumulate"
       d="m 256,575.05384 -32.9105,62.63505 c 10.62911,-2.19367 21.63167,-3.35017 32.9105,-3.35017 11.27882,0 22.28138,1.1565 32.9105,3.35017 L 256,575.05384 z m -110.65417,29.62601 2.82466,70.78057 c 16.35733,-14.5977 35.69347,-25.94407 56.98574,-32.97619 l -59.8104,-37.80438 z m 221.30833,0 -59.8104,37.80438 c 21.29228,7.03212 40.62841,18.37849 56.98575,32.97619 l 2.82465,-70.78057 z M 64.31769,685.708 l 37.80438,59.8104 c 7.03212,-21.29228 18.37849,-40.62841 32.97618,-56.98575 L 64.31769,685.708 z m 383.36461,0 -70.78056,2.82465 c 14.59769,16.35734 25.94407,35.69347 32.97619,56.98575 L 447.6823,685.708 z m -350.355577,77.74366 -62.635051,32.9105 62.635051,32.9105 c -2.193665,-10.62911 -3.35017,-21.63167 -3.35017,-32.9105 0,-11.27882 1.156505,-22.28138 3.35017,-32.9105 z m 317.346547,0 c 2.19367,10.62912 3.35017,21.63168 3.35017,32.9105 0,11.27883 -1.1565,22.28139 -3.35017,32.9105 l 62.63505,-32.9105 -62.63505,-32.9105 z m -312.5512,83.75427 -37.80438,59.8104 70.78056,-2.82466 C 120.50056,887.83434 109.15419,868.4982 102.12207,847.20593 z m 307.75586,0 c -7.03212,21.29227 -18.3785,40.62841 -32.97619,56.98574 l 70.78056,2.82466 -37.80437,-59.8104 z m -261.70744,70.05798 -2.82466,70.78056 59.8104,-37.80438 c -21.29227,-7.03212 -40.62841,-18.37849 -56.98574,-32.97618 z m 215.65902,0 c -16.35734,14.59769 -35.69347,25.94406 -56.98575,32.97618 l 59.8104,37.80438 -2.82465,-70.78056 z M 223.0895,955.03544 256,1017.6705 288.9105,955.03544 c -10.62912,2.19366 -21.63168,3.35017 -32.9105,3.35017 -11.27883,0 -22.28139,-1.15651 -32.9105,-3.35017 z"
       id="path5364-0-0"
       inkscape:connector-curvature="0" />
    <path
       style="color:#000000;fill:none;stroke:#000000;stroke-width:3;stroke-linecap:butt;stroke-linejoin:miter;stroke-miterlimit:4;stroke-opacity:1;stroke-dasharray:none;stroke-dashoffset:0;marker:none;visibility:visible;display:inline;overflow:visible;enable-background:accumulate"
       d="M 256,592.39591 244.14302,614.96029 256,633.12347 267.85697,614.96029 256,592.39591 z m -101.98314,27.32688 1.01819,25.42188 19.3456,9.8206 1.18241,-21.64473 -21.5462,-13.59775 z m 203.96627,0 -21.54619,13.59775 1.18241,21.64473 19.34559,-9.8206 1.01819,-25.42188 z m -278.622517,74.65625 13.597751,21.54619 21.644726,-1.18241 -9.82059,-19.34559 -25.421887,-1.01819 z m 353.278767,0 -25.42188,1.01819 -9.8206,19.34559 21.64473,1.18241 13.59775,-21.54619 z M 74.598115,784.5052 52.033731,796.36217 74.598115,808.21915 92.761295,796.36217 74.598115,784.5052 z m 362.803765,0 -18.16318,11.85697 18.16318,11.85698 22.56438,-11.85698 -22.56438,-11.85697 z m -344.443516,92.29391 -13.597751,21.5462 25.421887,-1.01819 9.82059,-19.3456 -21.644726,-1.18241 z m 326.083266,0 -21.64473,1.18241 9.8206,19.3456 25.42188,1.01819 -13.59775,-21.5462 z m -244.66098,60.95997 -19.3456,9.8206 -1.01819,25.42188 21.5462,-13.59775 -1.18241,-21.64473 z m 163.2387,0 -1.18241,21.64473 21.54619,13.59775 -1.01819,-25.42188 -19.34559,-9.8206 z M 256,959.60088 244.14302,977.76406 256,1000.3284 267.85697,977.76406 256,959.60088 z"
       id="path5364-0-5"
       inkscape:connector-curvature="0" />
    <path
       style="color:#000000;fill:none;stroke:#000000;stroke-width:3;stroke-linecap:butt;stroke-linejoin:miter;stroke-miterlimit:4;stroke-opacity:1;stroke-dasharray:none;stroke-dashoffset:0;marker:none;visibility:visible;display:inline;overflow:visible;enable-background:accumulate"
       d="m 240.03742,574.16706 c -29.00154,2.05333 -56.47832,9.64355 -81.35659,21.74326 l 11.6599,7.35724 c 19.69193,-8.74916 40.97762,-14.56445 63.29195,-16.91508 l 6.40474,-12.18542 z m 31.92515,0 6.40474,12.18542 c 22.31434,2.35063 43.60002,8.16592 63.29195,16.91508 l 11.65991,-7.35724 c -24.87828,-12.09971 -52.35506,-19.68993 -81.3566,-21.74326 z m -140.87138,37.73868 c -23.42278,15.89254 -43.655106,36.12487 -59.547642,59.54764 l 13.761975,0.55837 c 12.947256,-17.73989 28.604137,-33.39677 46.344027,-46.34403 l -0.55836,-13.76198 z m 249.81762,0 -0.55836,13.76198 c 17.73988,12.94726 33.39677,28.60414 46.34402,46.34403 l 13.76198,-0.55837 c -15.89254,-23.42277 -36.12487,-43.6551 -59.54764,-59.54764 z M 55.548126,699.04302 c -12.09971,24.87828 -19.689917,52.35506 -21.743264,81.3566 l 12.185424,-6.40474 c 2.350626,-22.31434 8.165922,-43.60002 16.915077,-63.29195 l -7.357237,-11.65991 z m 400.903744,0 -7.35724,11.65991 c 8.74915,19.69193 14.56445,40.97761 16.91508,63.29195 l 12.18542,6.40474 c -2.05334,-29.00154 -9.64355,-56.47832 -21.74326,-81.3566 z M 33.804862,812.32477 c 2.053347,29.00154 9.643554,56.47832 21.743264,81.35659 l 7.357237,-11.6599 C 54.156208,862.32953 48.340912,841.04384 45.990286,818.72951 l -12.185424,-6.40474 z m 444.390268,0 -12.18542,6.40474 c -2.35063,22.31433 -8.16593,43.60002 -16.91508,63.29195 l 7.35724,11.6599 c 12.09971,-24.87827 19.68992,-52.35505 21.74326,-81.35659 z M 85.305523,920.71264 71.543548,921.271 c 15.892536,23.42277 36.124862,43.65511 59.547642,59.54764 l 0.55836,-13.76197 C 113.90966,954.10941 98.252779,938.45253 85.305523,920.71264 z m 341.388947,0 c -12.94725,17.73989 -28.60414,33.39677 -46.34402,46.34403 l 0.55836,13.76197 c 23.42277,-15.89253 43.6551,-36.12486 59.54764,-59.54764 l -13.76198,-0.55836 z m -256.35374,68.74419 -11.6599,7.35724 c 24.87827,12.09973 52.35505,19.68993 81.35659,21.74323 l -6.40474,-12.1854 c -22.31433,-2.3506 -43.60002,-8.16592 -63.29195,-16.91507 z m 171.31853,0 c -19.69193,8.74915 -40.97761,14.56447 -63.29195,16.91507 l -6.40474,12.1854 c 29.00154,-2.0533 56.47832,-9.6435 81.3566,-21.74323 l -11.65991,-7.35724 z"
       id="path5342-7-0"
       inkscape:connector-curvature="0" />
  </g>
</svg>
